<svg width="756" height="756" viewBox="0 0 756 756" fill="none" xmlns="http://www.w3.org/2000/svg">
<g clip-path="url(#clip0_6_2)">
<mask id="mask0_6_2" style="mask-type:luminance" maskUnits="userSpaceOnUse" x="0" y="0" width="756" height="755">
<path d="M0.666626 0H755.333V754.667H0.666626V0Z" fill="white"/>
</mask>
<g mask="url(#mask0_6_2)">
<mask id="mask1_6_2" style="mask-type:luminance" maskUnits="userSpaceOnUse" x="0" y="0" width="756" height="755">
<path d="M378 0C169.604 0 0.666626 168.938 0.666626 377.333C0.666626 585.729 169.604 754.667 378 754.667C586.396 754.667 755.333 585.729 755.333 377.333C755.333 168.938 586.396 0 378 0Z" fill="white"/>
</mask>
<g mask="url(#mask1_6_2)">
<path d="M378 0C169.604 0 0.666626 168.938 0.666626 377.334C0.666626 585.73 169.604 754.667 378 754.667C586.396 754.667 755.334 585.73 755.334 377.334C755.334 168.938 586.396 0 378 0Z" fill="white" stroke="#CF0000" stroke-width="3.99296"/>
</g>
</g>
<mask id="mask2_6_2" style="mask-type:luminance" maskUnits="userSpaceOnUse" x="0" y="0" width="756" height="371">
<path d="M0.666626 0.125H755.333V370.474H0.666626V0.125Z" fill="white"/>
</mask>
<g mask="url(#mask2_6_2)">
<path d="M0.760376 370.474C4.32809 165.292 171.797 0.130249 378.031 0.130249C584.036 0.130249 751.51 165.292 755.073 370.474H0.760376Z" fill="#CF0000"/>
</g>
<mask id="mask3_6_2" style="mask-type:luminance" maskUnits="userSpaceOnUse" x="2" y="196" width="752" height="175">
<path d="M2.20837 196.922H753.88V370.615H2.20837V196.922Z" fill="white"/>
</mask>
<g mask="url(#mask3_6_2)">
<path d="M745.01 348.656C744.745 349.182 744.745 349.599 744.787 349.859C741.359 348.391 732.016 344.063 722.412 335.74C717.328 331.37 711.719 325.38 706.859 317.661V317.438H706.708C706.182 316.609 705.693 315.74 705.203 314.911V311.297L703.13 307.682C703.13 307.682 703.13 307.604 703.094 307.453C702.87 305.609 700.948 292.13 695.375 284.406L695.979 280.078L696.729 278.984C703.849 303.161 716.802 320.599 726.443 331.031C735.406 340.672 743.24 346.208 745.464 347.677C745.349 347.979 745.198 348.281 745.01 348.656ZM705.203 317.438V315.479C705.578 316.12 705.958 316.755 706.333 317.438H705.203ZM744.932 351.068H744.672V352.307C742.635 352.307 742.412 355.849 742.412 355.849L740 358.109V359.161H739.589C733.224 348.354 721.583 340.448 721.583 340.448C717.63 336.682 705.771 336.229 705.771 336.229V320.484L706.859 318.641V318.224C711.005 324.74 716.198 330.693 722.266 335.964C732.094 344.474 741.656 348.844 744.932 350.198V351.068ZM689.537 272.318H689.385L692.625 262.792L695.901 272.318H695.714L692.625 266.068L689.537 272.318ZM682.193 307.453C682.156 307.604 682.156 307.682 682.156 307.682L680.083 311.297V314.911C679.594 315.74 679.104 316.609 678.578 317.438H678.427V317.661C677.412 319.318 676.318 320.823 675.224 322.333C674.927 322.219 674.547 322.068 674.135 321.844L668.599 319.13C676.016 309 683.662 295.557 688.557 278.984L689.271 280.078L689.912 284.406C684.302 292.13 682.417 305.609 682.193 307.453ZM680.083 317.438H678.917C679.333 316.755 679.708 316.12 680.083 315.479V317.438ZM679.479 336.229C679.479 336.229 667.656 336.682 663.703 340.448C663.703 340.448 656.359 345.453 650.146 352.875H649.469V347.979H648.714V346.057C652.854 343.724 657.901 340.406 663.026 335.964C666.604 332.839 669.917 329.448 672.854 325.87H675.755C675.755 325.87 678.766 325.38 678.5 322.333C678.276 319.734 678.276 323.047 675.526 322.406C676.542 321.052 677.521 319.62 678.427 318.224V318.641L679.479 320.484V336.229ZM645.891 342.818C642.953 345.193 640.766 346.734 639.714 347.453C639.563 347.036 639.448 346.661 639.448 346.323C639.448 346.323 639.526 345.943 639.109 345.943C638.734 345.943 638.771 346.323 638.771 346.323C638.771 346.849 638.547 347.453 638.167 348.24H632.823V335.474C632.823 335.474 634.214 333.026 639.375 333.026C644.495 333.026 645.891 335.474 645.891 335.474V342.818ZM645.891 347.302C645.25 347.641 644.609 347.943 644.042 348.24H640.052C639.974 348.052 639.901 347.865 639.823 347.677C640.802 347.036 642.99 345.495 645.891 343.156V347.302ZM645.891 348.24H644.646C645.021 348.016 645.438 347.828 645.891 347.599V348.24ZM648.714 340.786C651.688 338.224 655.151 334.984 658.807 331.031C660.276 329.484 661.781 327.755 663.323 325.87H672.479C669.276 329.786 665.964 333.063 662.833 335.74C657.792 340.146 652.818 343.422 648.714 345.755V340.786ZM648.714 334.422C648.714 334.422 651.5 333.594 651.5 332.349V329.865H650.859V329.073C650.859 329.073 651.349 328.281 653.234 328.208C655.151 328.167 655.979 327.339 655.979 326.438V325.87H662.984C661.479 327.677 660.01 329.339 658.62 330.844C655.042 334.724 651.651 337.885 648.714 340.448V334.422ZM616.891 335.474C616.891 335.474 618.287 333.026 623.443 333.026C628.563 333.026 629.958 335.474 629.958 335.474V348.24H616.891V335.474ZM619.604 290.094H627.245V295.214H619.604V290.094ZM621.787 263.505H625.099V268.63H621.787V263.505ZM614.026 348.24H600.958V335.474C600.958 335.474 602.354 333.026 607.516 333.026C612.635 333.026 614.026 335.474 614.026 335.474V348.24ZM598.135 347.979H597.38V352.875H591.698V342.443L592.526 341.802V338.26L595.615 332.99C596.292 333.854 598.135 334.422 598.135 334.422V347.979ZM585.745 354.943H581.151V350.313C581.151 350.313 581.453 350.313 581.453 350.047C581.453 349.786 581.417 349.37 582.016 349.37C582.016 349.37 582.203 349.37 582.203 349.182C582.203 349.182 582.13 347.979 583.448 347.979C584.766 347.979 584.693 349.182 584.693 349.182C584.693 349.37 584.88 349.37 584.88 349.37C585.443 349.37 585.443 349.786 585.443 350.047C585.443 350.313 585.745 350.313 585.745 350.313V354.943ZM577.385 354.943H572.755V350.313C572.755 350.313 573.052 350.313 573.052 350.047C573.052 349.786 573.052 349.37 573.62 349.37C573.62 349.37 573.844 349.37 573.844 349.182C573.844 349.182 573.734 347.979 575.052 347.979C576.406 347.979 576.292 349.182 576.292 349.182C576.292 349.37 576.521 349.37 576.521 349.37C577.083 349.37 577.047 349.786 577.047 350.047C577.047 350.313 577.385 350.313 577.385 350.313V354.943ZM568.984 354.943H564.354V350.313C564.354 350.313 564.693 350.313 564.693 350.047C564.693 349.786 564.693 349.37 565.219 349.37C565.219 349.37 565.448 349.37 565.448 349.182C565.448 349.182 565.37 347.979 566.688 347.979C568.005 347.979 567.932 349.182 567.932 349.182C567.932 349.37 568.12 349.37 568.12 349.37C568.688 349.37 568.688 349.786 568.688 350.047C568.688 350.313 568.984 350.313 568.984 350.313V354.943ZM562.13 358.182H555.807V346.734H562.13V358.182ZM553.583 354.943H548.953V350.313C548.953 350.313 549.292 350.313 549.292 350.047C549.292 349.786 549.255 349.37 549.818 349.37C549.818 349.37 550.042 349.37 550.042 349.182C550.042 349.182 549.932 347.979 551.287 347.979C552.604 347.979 552.49 349.182 552.49 349.182C552.49 349.37 552.719 349.37 552.719 349.37C553.281 349.37 553.245 349.786 553.245 350.047C553.245 350.313 553.583 350.313 553.583 350.313V354.943ZM545.224 354.943H543.677V348.203C544.167 348.542 544.13 349.182 544.13 349.182C544.13 349.37 544.318 349.37 544.318 349.37C544.885 349.37 544.885 349.786 544.885 350.047C544.885 350.313 545.224 350.313 545.224 350.313V354.943ZM524.396 317.547L521.875 319.245V322.292L521.307 322.63H521.01C520.521 322.859 520.068 323.161 519.688 323.464L515.771 325.568C513.891 326.891 514.604 323.047 513.703 325.568C512.797 328.094 515.057 328.281 515.057 328.281H517.24C517.167 328.698 517.167 328.958 517.167 328.958C515.51 329.974 516.677 330.578 516.677 330.578V333.63H514.682V341.385H503.646V327.188H479.583C477.172 325.87 473.521 323.76 468.885 320.672V318.115H465.12C460.375 314.797 454.875 310.656 448.891 305.609C431.224 290.698 405.693 264.563 383.734 224.568L383.927 224.229C384.49 224.828 385.057 225.469 385.656 226.073C416.01 266.182 451.714 288.589 476.604 300.411C501.047 312.01 520.031 315.927 524.396 316.719V317.547ZM477.813 327.188C475.667 326.323 472.615 324.969 468.885 323.01V321.052C473.104 323.875 476.531 325.87 478.906 327.188H477.813ZM468.885 327.188V323.385C472.162 325.078 474.912 326.359 476.984 327.188H468.885ZM460.375 318.115C456.422 315.63 452.016 312.615 447.38 309C429.948 295.406 405.016 270.099 384.375 226.411C406.146 265.5 431.302 291.151 448.74 305.875C454.537 310.807 459.922 314.839 464.557 318.115H460.375ZM437.099 318.115V310.016H430.849V304.745H429.005C429.005 304.745 421.359 274.656 393.339 271.078V262.266C393.339 262.266 394.469 261.245 394.469 257.708H392.625L383.396 225.281L383.438 225.13C392.547 244.677 403.245 262.224 415.297 277.328C425.125 289.682 435.859 300.453 447.234 309.302C451.677 312.766 455.896 315.703 459.734 318.115H437.099ZM426.104 308.208H425.427V307.078H426.104V308.208ZM421.547 308.208H420.87V307.078H421.547V308.208ZM416.99 308.208H416.313V307.078H416.99V308.208ZM412.432 308.208H411.755V307.078H412.432V308.208ZM407.875 308.208H407.198V307.078H407.875V308.208ZM403.318 308.208H402.641V307.078H403.318V308.208ZM398.766 308.208H398.083V307.078H398.766V308.208ZM394.208 308.208H393.526V307.078H394.208V308.208ZM389.688 308.208H388.974V307.078H389.688V308.208ZM385.13 308.208H384.453V307.078H385.13V308.208ZM381.776 207.354H381.516L380.912 200.5H381.026C381.177 202.005 381.854 206.224 385.094 212.25H383.323L381.776 207.354ZM479.396 297.365C501.349 308.849 517.995 314.349 523.417 316.042C517.62 314.875 499.578 310.807 476.797 299.964C452.693 288.51 418.495 267.12 388.823 229.385C421.885 263.62 456.005 285.125 479.396 297.365ZM380.573 308.208H379.896V307.078H380.573V308.208ZM378.953 207.354H378.651L377.109 212.25H375.375C378.578 206.224 379.292 202.005 379.406 200.5H379.521L378.953 207.354ZM367.807 257.708H365.964C365.964 261.245 367.089 262.266 367.089 262.266V271.078C339.109 274.656 331.464 304.745 331.464 304.745H329.583V310.016H323.328V318.115H300.698C304.537 315.703 308.755 312.766 313.24 309.302C324.573 300.453 335.307 289.682 345.135 277.328C357.188 262.224 367.88 244.677 376.995 225.13L377.073 225.281L367.807 257.708ZM376.016 308.208H375.339V307.078H376.016V308.208ZM371.458 308.208H370.781V307.078H371.458V308.208ZM366.901 308.208H366.224V307.078H366.901V308.208ZM362.344 308.208H361.667V307.078H362.344V308.208ZM357.792 308.208H357.109V307.078H357.792V308.208ZM353.234 308.208H352.552V307.078H353.234V308.208ZM348.677 308.208H348V307.078H348.677V308.208ZM344.12 308.208H343.479V307.078H344.12V308.208ZM339.563 308.208H338.885V307.078H339.563V308.208ZM335.042 308.208H334.365V307.078H335.042V308.208ZM295.875 318.115C300.547 314.839 305.896 310.807 311.729 305.875C329.167 291.151 354.287 265.5 376.052 226.411C355.417 270.099 330.484 295.406 313.047 309C308.417 312.615 304.047 315.63 300.094 318.115H295.875ZM291.583 318.115V320.672C286.948 323.76 283.26 325.87 280.885 327.188H256.787V341.385H245.75V333.63H244.208L246.318 332.083H253.281V330.844L242.625 326.25C242.099 324.891 241.156 323.422 239.422 322.63H238.557V319.245L236.037 317.547V316.719C240.443 315.927 259.385 312.01 283.823 300.411C308.719 288.589 344.422 266.182 374.813 226.073C375.375 225.469 375.979 224.828 376.542 224.229L376.734 224.568C354.776 264.563 329.203 290.698 311.542 305.609C305.552 310.656 300.057 314.797 295.313 318.115H291.583ZM291.583 323.01C287.818 324.969 284.766 326.323 282.62 327.188H281.563C283.901 325.87 287.328 323.875 291.583 321.052V323.01ZM291.583 327.188H283.484C285.557 326.359 288.271 325.078 291.583 323.385V327.188ZM281.037 297.365C304.427 285.125 338.583 263.62 371.646 229.385C341.932 267.12 307.74 288.51 283.672 299.964C260.891 310.807 242.849 314.875 237.016 316.042C242.438 314.349 259.083 308.849 281.037 297.365ZM223.38 312.88H220.292V308.813H223.38V312.88ZM220.328 338.526H214.719V333.177H220.328V338.526ZM211.068 273.448V272.958C211.068 272.958 211.177 272.885 211.255 272.62C211.365 273.146 211.365 273.448 211.365 273.448H211.068ZM210.578 270.813L210.537 270.438C210.766 270.885 210.917 271.339 211.026 271.792C210.839 271.568 210.578 271.302 210.578 270.813ZM210.651 338.526H205.042V333.177H210.651V338.526ZM209.938 354.984H205.792V347.677H209.938V354.984ZM205.151 270.438L205.115 270.813C205.115 271.302 204.891 271.526 204.662 271.755C204.813 271.339 204.964 270.885 205.151 270.438ZM204.625 273.448H204.323C204.323 273.448 204.359 273.146 204.474 272.62C204.51 272.885 204.625 272.958 204.625 272.958V273.448ZM206.771 289.115V285.276H208.917V289.115H206.771ZM209.182 308.51V313.182H206.547V308.51H209.182ZM207.865 267.839C208.995 268.099 209.787 268.969 210.349 269.984L210.234 270.813C210.234 271.677 209.521 271.755 209.521 272.281C209.521 272.807 209.745 272.958 209.745 272.958V273.448H208.578V272.922C208.578 272.922 208.807 272.734 208.807 272.167C208.807 271.604 208.052 271.49 208.052 270.547L207.865 268.969L207.641 270.547C207.641 271.49 206.885 271.604 206.885 272.167C206.885 272.734 207.151 272.922 207.151 272.922V273.448H205.943V272.958C205.943 272.958 206.172 272.807 206.172 272.281C206.172 271.755 205.49 271.677 205.49 270.813L205.38 269.984C205.906 268.969 206.698 268.099 207.865 267.839ZM200.974 338.526H195.359V333.177H200.974V338.526ZM193.552 354.984H189.412V347.677H193.552V354.984ZM192.349 308.813H195.401V312.88H192.349V308.813ZM180.938 355.698H179.995V354.042H178.151V351.708H176.307V349.333H174.458V347H172.349V344.661H166.214V332.083H169.375L180.938 340.406V355.698ZM158.078 233.641V236.88H156.005V233.641C156.005 233.641 155.896 232.323 157.021 232.323C158.193 232.323 158.078 233.641 158.078 233.641ZM157.021 246.635C156.609 246.635 156.271 246.297 156.271 245.88C156.271 245.427 156.609 245.089 157.021 245.089C157.438 245.089 157.813 245.427 157.813 245.88C157.813 246.297 157.438 246.635 157.021 246.635ZM157.021 257.708C156.609 257.708 156.271 257.37 156.271 256.953C156.271 256.5 156.609 256.161 157.021 256.161C157.438 256.161 157.813 256.5 157.813 256.953C157.813 257.37 157.438 257.708 157.021 257.708ZM157.021 268.781C156.609 268.781 156.271 268.438 156.271 267.99C156.271 267.609 156.609 267.234 157.021 267.234C157.438 267.234 157.813 267.609 157.813 267.99C157.813 268.438 157.438 268.781 157.021 268.781ZM157.021 280.604C156.609 280.604 156.271 280.266 156.271 279.849C156.271 279.438 156.609 279.099 157.021 279.099C157.438 279.099 157.813 279.438 157.813 279.849C157.813 280.266 157.438 280.604 157.021 280.604ZM157.021 294.125C156.609 294.125 156.271 293.786 156.271 293.37C156.271 292.917 156.609 292.578 157.021 292.578C157.438 292.578 157.813 292.917 157.813 293.37C157.813 293.786 157.438 294.125 157.021 294.125ZM157.021 307.417C156.609 307.417 156.271 307.078 156.271 306.667C156.271 306.214 156.609 305.875 157.021 305.875C157.438 305.875 157.813 306.214 157.813 306.667C157.813 307.078 157.438 307.417 157.021 307.417ZM157.021 322.781C156.609 322.781 156.271 322.443 156.271 322.031C156.271 321.615 156.609 321.276 157.021 321.276C157.438 321.276 157.813 321.615 157.813 322.031C157.813 322.443 157.438 322.781 157.021 322.781ZM157.021 337.885C156.609 337.885 156.271 337.547 156.271 337.13C156.271 336.682 156.609 336.339 157.021 336.339C157.438 336.339 157.813 336.682 157.813 337.13C157.813 337.547 157.438 337.885 157.021 337.885ZM25.3282 326.698V324.818H24.1563C24.1563 324.818 25.2865 324.365 25.0625 323.083L23.0678 312.24H23.4063L25.8178 324.214C26.0053 325.078 26.6823 326.099 27.5105 326.813C26.7553 326.698 26.0417 326.661 25.3282 326.698ZM20.6563 324.818H19.5261V326.698C18.8125 326.661 18.0573 326.698 17.3021 326.813C18.1719 326.099 18.8125 325.078 19 324.214L21.448 312.24H21.75L19.7917 323.083C19.5261 324.365 20.6563 324.818 20.6563 324.818ZM604.464 294.724L598.703 290.432H604.464V294.724ZM614.292 266.068L610.49 262.755H614.292V266.068ZM632.594 262.755H636.359L632.594 266.068V262.755ZM642.385 290.432H648.146L642.385 294.724V290.432ZM791.635 368.203C791.635 368.203 788.396 367.974 782.333 367.563C776.307 367.224 767.417 366.583 756.12 366.057C756.083 366.016 756.047 366.016 756.005 366.016V364.589H754.839V363.531L754.089 362.776V360.328L754.385 359.953V359.161H752.318V358.109L749.906 355.849C749.906 355.849 749.682 352.307 747.646 352.307V351.068H747.38V350.198C747.38 350.198 747.797 349.672 747.307 348.656C746.781 347.641 746.516 346.922 746.516 346.323C746.516 346.323 746.552 345.943 746.141 345.943C745.766 345.943 745.802 346.323 745.802 346.323C745.802 346.661 745.724 347.036 745.573 347.453C743.276 345.943 735.521 340.406 726.63 330.844C716.99 320.411 704.037 302.938 696.917 278.682L697.557 277.74V274.427H697.182V272.318H696.427L692.891 261.927V261.885C692.891 261.885 692.891 261.885 692.891 261.849C692.849 261.849 692.849 261.849 692.849 261.813C692.849 261.813 692.813 261.776 692.776 261.776C692.776 261.776 692.776 261.734 692.74 261.734C692.74 261.734 692.74 261.734 692.698 261.734C692.698 261.734 692.662 261.698 692.625 261.698C692.625 261.698 692.589 261.734 692.552 261.734C692.552 261.734 692.552 261.734 692.51 261.734C692.51 261.734 692.51 261.776 692.474 261.776L692.438 261.813C692.438 261.849 692.438 261.849 692.401 261.849C692.401 261.885 692.401 261.885 692.401 261.927L688.823 272.318H688.104V274.427H687.693V277.74L688.333 278.682C683.474 295.365 675.792 308.849 668.37 319.016L641.896 306.135V305.156H641.146V301.62L642.875 299.734V297.365L652.932 290.51L660.537 289.344C660.537 289.344 663.287 288.51 662.344 286.443C661.365 284.333 662.609 288.063 658.995 286.443L631.88 276.839V275.594H631.464V273.526L633.083 271.375V269.906H632.443V268.927L639.037 262.828H644.156C644.156 262.828 646.719 262.714 645.438 259.854C644.156 256.99 645.927 261.698 641.333 260.005L628.151 256.427C628.151 256.427 627.625 255.599 626.906 255.26C626.156 254.922 625.401 253.901 625.25 252.964C625.063 252.021 625.25 250.813 624.839 250.474C624.422 250.135 624.307 249.875 624.573 249.609C624.839 249.385 624.797 249.156 624.458 248.854C624.12 248.479 624.724 248.255 624.349 247.839C623.969 247.464 624.234 247.313 623.896 246.974C623.521 246.599 623.932 245.995 623.443 245.995C622.917 245.995 623.328 246.599 622.99 246.974C622.615 247.313 622.917 247.464 622.5 247.839C622.125 248.255 622.766 248.479 622.391 248.854C622.052 249.156 622.01 249.385 622.276 249.609C622.542 249.875 622.464 250.135 622.01 250.474C621.599 250.813 621.787 252.021 621.635 252.964C621.448 253.901 620.693 254.922 619.979 255.26C619.224 255.599 618.698 256.427 618.698 256.427L605.516 260.005C600.922 261.698 602.693 256.99 601.448 259.854C600.172 262.714 602.693 262.828 602.693 262.828H607.813L614.406 268.927V269.906H613.766V271.375L615.385 273.526V275.594H614.969V276.839L587.854 286.443C584.276 288.063 585.484 284.333 584.505 286.443C583.563 288.51 586.313 289.344 586.313 289.344L593.917 290.51L603.974 297.365V299.734L605.745 301.62V305.156H604.953V306.135L584.542 316.078L571.625 309.115V306.667L574.073 305.875V304.479L581.49 297.214H585.182V295.104C585.182 295.104 587.026 294.802 586.083 293.109C585.141 291.411 586.234 294.464 583.75 292.844L565.708 283.693V282.786H564.807V281.396H564.432V280.641C564.432 280.641 564.88 280.641 564.88 279.927C564.88 279.25 564.203 279.208 564.203 278.307C564.203 277.443 564.167 277.25 564.052 277.104C564.052 277.104 564.052 277.104 564.016 277.063L563.979 269.76C563.979 269.719 563.943 269.682 563.901 269.682C563.865 269.682 563.828 269.719 563.828 269.76L563.792 277.063C563.75 277.104 563.75 277.104 563.75 277.104C563.599 277.25 563.563 277.443 563.563 278.307C563.563 279.208 562.922 279.25 562.922 279.927C562.922 280.641 563.375 280.641 563.375 280.641V281.396H562.662V279.359C562.662 279.359 563.302 279.135 562.474 277.891C561.641 276.688 560.625 275.896 560.625 274.125C560.625 272.396 559.724 273.563 559.724 272.547C559.724 272.547 560.365 272.583 560.365 271.979C560.365 271.417 559.573 271.979 559.573 271.266C559.573 270.547 560.25 270.849 560.25 270.057C560.25 269.229 559.385 269.87 559.385 269.38V269.042H559.495C559.646 269.042 559.76 268.927 559.76 268.781C559.76 268.63 559.646 268.516 559.495 268.516H559.385V268.099H559.495C559.646 268.099 559.76 267.99 559.76 267.839C559.76 267.688 559.646 267.573 559.495 267.573H559.385C559.385 267.536 559.385 267.349 559.234 267.349C559.193 267.349 559.12 267.349 559.12 267.198V267.01C559.307 266.969 559.458 266.781 559.458 266.594C559.458 266.37 559.307 266.182 559.12 266.141V263.807C560.135 263.771 559.76 263.432 559.537 263.203C559.271 262.979 559.307 261.964 559.307 261.547C559.307 261.286 559.193 261.172 559.12 261.135V260.984C559.12 260.984 559.12 260.87 558.969 260.87C558.818 260.87 558.818 260.984 558.818 260.984V261.135C558.745 261.172 558.667 261.286 558.667 261.547C558.667 261.964 558.667 262.979 558.443 263.203C558.177 263.432 557.802 263.771 558.818 263.807V266.141C558.63 266.182 558.516 266.37 558.516 266.594C558.516 266.781 558.63 266.969 558.818 267.01V267.198C558.818 267.349 558.745 267.349 558.745 267.349C558.594 267.349 558.557 267.536 558.557 267.573H558.443C558.328 267.573 558.177 267.688 558.177 267.839C558.177 267.99 558.328 268.099 558.443 268.099H558.557V268.516H558.443C558.328 268.516 558.177 268.63 558.177 268.781C558.177 268.927 558.328 269.042 558.443 269.042H558.557V269.38C558.557 269.87 557.724 269.229 557.724 270.057C557.724 270.849 558.406 270.547 558.406 271.266C558.406 271.979 557.578 271.417 557.578 271.979C557.578 272.583 558.255 272.547 558.255 272.547C558.255 273.563 557.313 272.396 557.313 274.125C557.313 275.896 556.333 276.688 555.505 277.891C554.641 279.135 555.276 279.359 555.276 279.359V281.396H554.563V280.641C554.563 280.641 555.052 280.641 555.052 279.927C555.052 279.25 554.375 279.208 554.375 278.307C554.375 277.443 554.339 277.25 554.224 277.104C554.224 277.104 554.188 277.104 554.188 277.063L554.109 269.76C554.109 269.719 554.109 269.682 554.037 269.682C554.037 269.682 554 269.719 554 269.76L553.922 277.063C553.922 277.104 553.922 277.104 553.922 277.104C553.771 277.25 553.734 277.443 553.734 278.307C553.734 279.208 553.094 279.25 553.094 279.927C553.094 280.641 553.547 280.641 553.547 280.641V281.396H553.172V282.786H552.266V283.693L534.229 292.844C531.74 294.464 532.833 291.411 531.891 293.109C530.948 294.802 532.797 295.104 532.797 295.104V297.214H536.448L543.906 304.479V305.875L546.354 306.667V309.115L528.276 318.828L526.354 317.547V316.193C526.354 316.193 526.354 315.516 525.375 315.099C524.849 315.328 524.625 315.63 524.51 315.818C520.37 314.609 503.042 309.151 479.583 296.911C455.479 284.333 419.964 261.849 385.995 225.734C385.396 224.979 384.828 224.229 384.266 223.474L385.734 220.458H386.448V212.25H385.62C382.38 206.302 381.63 202.047 381.479 200.5V199.521H380.875V197.453C380.875 197.453 380.948 196.922 380.234 196.922C379.521 196.922 379.594 197.453 379.594 197.453V199.521H378.99V200.5C378.802 202.047 378.089 206.302 374.849 212.25H374.021V220.458H374.698L376.167 223.474C375.604 224.229 375.037 224.979 374.474 225.734C340.464 261.849 304.953 284.333 280.885 296.911C257.427 309.151 240.063 314.609 235.958 315.818C235.844 315.63 235.583 315.328 235.057 315.099C234.078 315.516 234.078 316.193 234.078 316.193V317.547L231.552 319.245V321.464L227.938 319.922V315.214L236.448 305.271H240.667L241.422 304.292L220.292 295.365V292.318L227.938 282.901H231.479C231.479 282.901 233.135 282.786 232.568 280.417C232.568 280.417 231.854 281.432 229.37 280.417L214.719 275.146V273.448H213.474V272.995C213.474 272.995 213.662 272.844 213.662 272.354C213.662 271.865 213.026 271.792 213.026 271L212.833 269.609L212.682 271C212.682 271.792 212.005 271.865 212.005 272.354C212.005 272.844 212.234 272.995 212.234 272.995V273.448H211.703C211.703 273.448 212.005 270.208 210.615 268.63C209.255 267.047 209.333 266.859 208.958 265.693C208.542 264.484 207.979 262.224 207.979 262.224C207.979 262.224 207.938 262.036 207.865 262C207.75 262.036 207.714 262.224 207.714 262.224C207.714 262.224 207.151 264.484 206.771 265.693C206.359 266.859 206.432 267.047 205.078 268.63C203.724 270.208 204.021 273.448 204.021 273.448H203.495V272.995C203.495 272.995 203.682 272.844 203.682 272.354C203.682 271.865 203.042 271.792 203.042 271L202.854 269.609L202.703 271C202.703 271.792 202.063 271.865 202.063 272.354C202.063 272.844 202.255 272.995 202.255 272.995V273.448H200.974V275.146L186.359 280.417C183.839 281.432 183.12 280.417 183.12 280.417C182.594 282.786 184.25 282.901 184.25 282.901H187.755L195.401 292.318V295.365L174.271 304.292L175.026 305.271H179.245L187.755 315.214V319.922L166.667 328.995V328.469H165.797V314.083H166.214V313.031H164.781V300.26H165.156V299.359H164.328V287.344H164.667V286.479H163.99V275.031H164.328V274.203H163.802V263.094H164.104V262.302H163.537V251.568H163.875V250.813H163.276V240.573H163.537V239.818H162.75V230.443H163.01V229.76H162.484C162.484 229.76 163.839 226.823 161.62 224.677C159.396 222.531 158.453 223.021 158.078 221.552C158.078 221.552 158.078 221.328 157.776 221.177C157.776 221.099 157.776 221.063 157.776 221.026C157.776 220.651 157.589 220.313 157.323 220.161C157.589 220.047 157.74 219.781 157.74 219.521C157.74 219.219 157.552 218.953 157.323 218.844C157.51 218.766 157.662 218.542 157.662 218.313C157.662 218.01 157.474 217.786 157.172 217.714C157.401 217.635 157.51 217.448 157.51 217.224C157.51 217.031 157.401 216.844 157.214 216.771C157.365 216.693 157.438 216.542 157.438 216.396C157.438 216.203 157.365 216.052 157.172 216.016C157.323 215.943 157.401 215.828 157.401 215.677C157.401 215.563 157.323 215.453 157.172 215.375C157.287 215.339 157.365 215.224 157.365 215.115C157.365 215 157.287 214.885 157.172 214.849C157.25 214.813 157.287 214.698 157.287 214.625C157.287 214.51 157.25 214.438 157.135 214.396C157.214 214.359 157.287 214.245 157.287 214.172C157.287 214.094 157.25 214.057 157.214 214.021C157.287 213.984 157.323 213.948 157.323 213.87C157.323 213.797 157.25 213.755 157.172 213.719C157.25 213.682 157.287 213.604 157.287 213.531C157.287 213.417 157.172 213.307 157.021 213.307C156.912 213.307 156.797 213.417 156.797 213.531C156.797 213.604 156.833 213.682 156.875 213.719C156.797 213.755 156.76 213.797 156.76 213.87C156.76 213.948 156.797 213.984 156.875 214.021C156.833 214.057 156.797 214.094 156.797 214.172C156.797 214.245 156.833 214.359 156.912 214.396C156.833 214.438 156.76 214.51 156.76 214.625C156.76 214.698 156.797 214.813 156.875 214.849C156.797 214.885 156.724 215 156.724 215.115C156.724 215.224 156.797 215.339 156.875 215.375C156.76 215.453 156.682 215.563 156.682 215.677C156.682 215.828 156.76 215.943 156.875 216.016C156.724 216.052 156.609 216.203 156.609 216.396C156.609 216.542 156.724 216.693 156.875 216.771C156.682 216.844 156.531 217.031 156.531 217.224C156.531 217.448 156.682 217.635 156.875 217.714C156.609 217.786 156.422 218.01 156.422 218.313C156.422 218.542 156.573 218.766 156.76 218.844C156.495 218.953 156.307 219.219 156.307 219.521C156.307 219.781 156.495 220.047 156.724 220.161C156.458 220.313 156.307 220.651 156.307 221.026C156.307 221.063 156.307 221.099 156.307 221.177C156.005 221.328 155.969 221.552 155.969 221.552C155.594 223.021 154.651 222.531 152.427 224.677C150.245 226.823 151.563 229.76 151.563 229.76H151.037V230.443H151.339V239.818H150.51V240.573H150.807V250.813H150.208V251.568H150.51V262.302H149.943V263.094H150.281V274.203H149.719V275.031H150.057V286.479H149.38V287.344H149.719V299.359H148.891V300.26H149.266V313.031H147.833V314.083H148.25V328.469H147.422V329.563H147.833V342.328C146.594 340.557 144.745 338.979 142.073 337.771C142.073 337.771 140.828 331.255 137.479 329.448C134.162 327.604 129.646 326.474 125.766 326.813C121.885 327.188 124.484 324.891 124.37 321.276C124.26 317.698 123.922 296.083 116.047 292.844C108.141 289.568 104.526 292.13 104.75 288.365C104.938 284.594 108.141 280.531 105.766 278.156C105.766 278.156 106.255 271.339 102.38 268.552C98.5 265.729 101.208 264.714 96.3542 263.807C96.3542 263.807 96.5053 263.13 95.7136 262.865C94.9219 263.13 95.073 263.807 95.073 263.807C90.2136 264.714 92.9271 265.729 89.0469 268.552C85.1667 271.339 85.6563 278.156 85.6563 278.156C83.2865 280.531 86.448 284.594 86.6719 288.365C86.9011 292.13 83.2865 289.568 75.375 292.844C67.5053 296.083 67.1667 317.698 67.0521 321.276C66.9428 324.891 69.5365 327.188 65.6615 326.813C61.7813 326.474 57.2605 327.604 53.9115 329.448C50.5938 331.255 49.3542 337.771 49.3542 337.771C36.8125 343.385 42.4636 357.583 42.4636 357.583V364.849H42.349V362.214H41.5938C41.5938 362.214 41.8959 360.406 40.8021 359.99V356.115L40.5417 355.698V352.646L40.3542 352.385V348.578L39.599 346.583H37.224L36.5105 345.302H34.4011V344.135H33.1615V342.969H31.8803V341.802H30.6355V340.635H29.4323V338.786C29.4323 338.786 32.5209 334.948 31.8803 330.354C31.7292 329.073 31.0521 328.208 30.1459 327.641C31.3125 327.266 31.6511 325.87 31.6511 325.87C29.0521 325.76 27.849 322.896 27.849 322.896L24.4948 312.24H24.724C24.724 312.24 25.0625 312.125 24.724 311.635L23.7448 310.281C23.7448 310.281 24.0834 309.641 24.0834 308.885C24.0834 308.885 24.198 308.51 23.8178 308.51H23.2188C23.2188 308.51 22.9167 308.094 23.2553 307.797C23.6303 307.495 24.2344 306.854 24.0834 306.286C23.8959 305.688 23.6667 306.474 23.0678 306.589C23.0678 306.589 23.6667 305.307 22.5 305.271C22.5 305.234 22.4636 305.156 22.4636 305.083C22.4636 304.969 22.4636 304.896 22.5782 304.859C22.6511 304.859 22.8021 304.818 22.7292 304.594C22.6875 304.37 22.5782 304.177 22.4271 304.177C22.2396 304.177 22.125 304.37 22.0886 304.594C22.0105 304.818 22.1615 304.859 22.2761 304.859C22.349 304.896 22.349 304.969 22.349 305.083C22.349 305.156 22.349 305.234 22.3125 305.271C21.1823 305.307 21.75 306.589 21.75 306.589C21.1823 306.474 20.9219 305.688 20.7709 306.286C20.5782 306.854 21.2188 307.495 21.5573 307.797C21.9375 308.094 21.6355 308.51 21.6355 308.51H20.9948C20.6563 308.51 20.7292 308.885 20.7292 308.885C20.7292 309.641 21.0678 310.281 21.0678 310.281L20.1303 311.635C19.75 312.125 20.1303 312.24 20.1303 312.24H20.3542L16.9636 322.896C16.9636 322.896 15.7969 325.76 13.198 325.87C13.198 325.87 13.5365 327.266 14.7032 327.641C13.7657 328.208 13.125 329.073 12.9375 330.354C12.2969 334.948 15.4219 338.786 15.4219 338.786V340.635H14.2136V341.802H12.9375V342.969H11.6928V344.135H10.4115V345.302H8.33858L7.62504 346.583H5.25525L4.46358 348.578V352.385L4.31254 352.646V355.698L4.04692 356.115V359.99C2.91671 360.406 3.25525 362.214 3.25525 362.214H2.50525V366.958C2.12504 366.995 1.7865 366.995 1.44796 366.995C-9.84892 367.599 -18.7343 368.276 -24.7604 368.615C-30.8229 369.068 -34.026 369.255 -34.026 369.255C-34.5937 369.292 -35.0833 369.823 -35.1198 370.464H793.63C793.594 369.255 792.724 368.276 791.635 368.203Z" fill="white"/>
</g>
<mask id="mask4_6_2" style="mask-type:luminance" maskUnits="userSpaceOnUse" x="105" y="416" width="107" height="119">
<path d="M105.75 416H212V534.438H105.75V416Z" fill="white"/>
</mask>
<g mask="url(#mask4_6_2)">
<path d="M131.911 425.75C140.333 420.182 150.234 416.963 160.292 416.281C163.599 416.281 166.912 416.302 170.219 416.276C172.885 416.182 175.495 416.823 178.13 417.125C187.464 418.672 196.604 422.24 203.979 428.271C206.276 429.963 208.318 431.958 210.417 433.896C204.99 440.078 199.646 446.328 194.234 452.521C189.677 448.49 184.698 444.859 179.141 442.339C172.469 439.526 164.901 438.958 157.828 440.417C149.979 442.172 142.927 447.146 138.542 453.896C129.802 467.047 130.412 485.609 139.833 498.25C145.214 505.453 153.787 510.266 162.797 510.724C168.875 511.036 175.151 510.339 180.688 507.667C185.964 505.021 190.693 501.411 195.021 497.417C200.458 502.839 205.792 508.37 211.266 513.76C209 516.094 206.703 518.406 204.214 520.5C196.849 526.969 187.729 531.448 178.063 533.125C175.333 533.719 172.516 533.776 169.802 534.437H159.714C157.719 533.906 155.656 533.771 153.635 533.401C141.156 531.266 129.417 524.922 120.87 515.557C113.333 507.271 108.365 496.714 106.62 485.651C106.271 483.75 106.214 481.807 105.786 479.917V470.792C106.453 466.906 106.766 462.937 107.885 459.135C111.568 445.63 120.12 433.375 131.911 425.75Z" fill="#CF0000"/>
</g>
<mask id="mask5_6_2" style="mask-type:luminance" maskUnits="userSpaceOnUse" x="432" y="416" width="103" height="119">
<path d="M432 416H534.667V534.438H432V416Z" fill="white"/>
</mask>
<g mask="url(#mask5_6_2)">
<path d="M455.073 425.141C461.958 420.083 470.24 416.964 478.75 416.287C481.776 416.281 484.807 416.281 487.839 416.292C494.948 416.906 501.948 419.068 508.052 422.807C514.818 426.839 520.401 432.693 524.484 439.406C531.354 450.734 534.193 464.198 533.693 477.359C533.531 490.396 529.714 503.531 522.078 514.167C515.297 523.635 505.083 530.719 493.667 533.167C491.479 533.693 489.219 533.823 487.057 534.438H478.703C476.531 533.839 474.271 533.682 472.089 533.172C464.589 531.594 457.536 528.016 451.734 523.016C441.016 513.719 434.88 499.974 433.052 486.063C431.755 476.422 432.188 466.526 434.557 457.083C437.682 444.609 444.552 432.76 455.073 425.141ZM478.927 439.505C474.557 440.292 470.615 442.724 467.625 445.974C463.135 450.781 460.766 457.156 459.469 463.51C458.047 471.609 458.036 480.01 459.849 488.047C461.563 495.167 464.807 502.318 470.682 506.943C474.953 510.401 480.693 511.932 486.115 511.057C491.979 510.438 497.135 506.729 500.484 501.99C505.141 495.458 507.073 487.375 507.594 479.464C507.875 473.078 507.578 466.583 505.776 460.406C503.849 453.479 500.26 446.594 494.125 442.526C489.776 439.422 484.12 438.542 478.927 439.505Z" fill="#CF0000"/>
</g>
<mask id="mask6_6_2" style="mask-type:luminance" maskUnits="userSpaceOnUse" x="222" y="416" width="92" height="119">
<path d="M222.667 416H313.333V534.438H222.667V416Z" fill="white"/>
</mask>
<g mask="url(#mask6_6_2)">
<path d="M249.016 419.818C254.016 417.766 259.406 416.755 264.797 416.583C265.766 416.547 266.729 416.375 267.703 416.328C272.823 416.646 277.995 416.875 283.016 418.057C292.865 420.219 302.135 424.807 310.005 431.094C305.573 437.453 301.266 443.901 296.771 450.224C288.703 444.891 279.896 439.948 270.089 439.047C265.281 438.828 259.917 438.875 255.979 442.047C251.411 445.552 251.693 453.568 256.542 456.688C260.771 459.458 265.781 460.557 270.552 462.005C279.938 464.583 289.547 466.906 298.104 471.714C304.208 475.182 309.589 480.505 311.75 487.323C313.125 491.135 313.344 495.234 313.245 499.25C313.469 507.036 310.693 514.854 305.615 520.745C301.229 525.911 295.151 529.422 288.745 531.438C283.021 533.333 276.964 533.87 270.974 534.099C261.896 533.797 252.797 532.224 244.323 528.885C236.406 525.885 229.146 521.26 222.906 515.552C227.932 509.583 232.88 503.552 237.922 497.599C243.708 502.188 249.995 506.26 256.917 508.927C263.37 511.177 270.38 512.047 277.156 511.052C280.599 510.536 284.161 509.198 286.37 506.38C289.323 502.37 288.667 495.75 284.177 493.13C276.974 488.734 268.505 487.286 260.495 485.021C252.547 482.729 244.359 480.245 237.766 475.031C232 470.547 228.333 463.552 227.792 456.271C227.141 449.406 227.594 442.151 230.906 435.969C234.583 428.505 241.318 422.792 249.016 419.818Z" fill="#CF0000"/>
</g>
<mask id="mask7_6_2" style="mask-type:luminance" maskUnits="userSpaceOnUse" x="328" y="417" width="87" height="118">
<path d="M328 417.333H414.667V534.438H328V417.333Z" fill="white"/>
</mask>
<g mask="url(#mask7_6_2)">
<path d="M335.776 474.469C336.911 455.677 338.01 436.88 339.026 418.083C362.484 418.083 385.938 418.078 409.396 418.089C409.391 425.542 409.401 433.005 409.385 440.469C393.198 440.526 377 440.448 360.813 440.51C360.589 446.901 359.938 453.281 359.625 459.672C361.865 459.193 364.099 458.693 366.354 458.307C370.193 457.635 374.104 457.885 377.979 457.875C385.943 458.37 394.078 460.302 400.693 464.948C407.49 469.583 412.016 477.167 413.521 485.208C414.547 490.823 414.609 496.604 413.766 502.25C412.448 510.396 408.484 518.156 402.328 523.698C396.719 528.708 389.594 531.833 382.25 533.245C380.052 533.719 377.781 533.854 375.599 534.438H365.87C363.323 533.802 360.682 533.714 358.12 533.156C346.729 531.135 336.438 524.938 328.109 517.057C333.203 510.927 338.349 504.833 343.443 498.708C348.099 502.802 353.161 506.552 358.911 508.953C362.599 510.396 366.557 511.167 370.526 511.073C375.411 511.188 380.568 510.167 384.469 507.042C387.901 504.339 389.495 499.833 389.411 495.552C389.521 491.76 388.224 487.813 385.438 485.172C382.448 482.24 378.307 480.854 374.245 480.271C366.781 479.328 359.151 480.641 352.224 483.5C351.427 483.776 350.479 484.443 349.724 483.719C345.063 480.646 340.432 477.536 335.776 474.469Z" fill="#CF0000"/>
</g>
<path d="M546.745 444.745C555.708 444.656 564.677 444.708 573.641 444.729C579.031 453.146 584.432 461.557 589.807 469.984C595.219 461.557 600.714 453.182 606.104 444.745C614.875 444.656 623.646 444.729 632.422 444.714C622.604 458.969 612.719 473.182 602.865 487.417C613.104 502.323 623.349 517.224 633.557 532.151C629.745 532.521 625.885 532.214 622.052 532.313C616.958 532.318 611.859 532.302 606.76 532.318C600.938 523.344 595.146 514.339 589.323 505.354C583.516 514.323 577.698 523.297 571.943 532.302C565.25 532.328 558.557 532.307 551.87 532.313C549.797 532.271 547.719 532.432 545.656 532.188C555.911 517.484 565.995 502.656 576.266 487.958C566.474 473.516 556.521 459.188 546.745 444.745Z" fill="#CF0000"/>
<path d="M267.292 598.906C269.542 598.906 271.818 599.313 274.125 600.115C276.427 600.906 278.568 602.063 280.542 603.573C282.526 605.073 284.25 606.839 285.708 608.865C287.167 610.88 288.172 613.109 288.729 615.552C289.396 618.667 289.609 621.422 289.375 623.823C289.135 626.214 288.448 628.823 287.312 631.656C286.187 634.479 284.588 637.818 282.521 641.677C280.448 645.526 277.917 650.417 274.917 656.344C272.75 656.151 271.052 655.542 269.833 654.51C268.792 653.568 268.104 652.156 267.771 650.281C267.448 648.396 268.177 645.755 269.958 642.365C271.651 639.073 273.042 635.88 274.125 632.781C275.208 629.672 275.838 626.802 276.021 624.177C276.213 621.542 275.958 619.214 275.25 617.198C274.552 615.172 273.26 613.635 271.375 612.594C270.052 611.844 268.755 611.281 267.479 610.906C266.213 610.531 264.781 610.464 263.187 610.698C261.588 610.938 259.776 611.547 257.75 612.531C255.734 613.521 253.359 615.047 250.625 617.115L240.042 625.01V656.344L227.354 644.073V594.385H222.125L215.062 581.969H292.979L300.021 594.385H240.042V612.74C240.51 612.365 241.667 611.427 243.5 609.927C245.333 608.417 247.521 606.839 250.062 605.198C252.604 603.547 255.38 602.089 258.396 600.823C261.406 599.547 264.375 598.906 267.292 598.906Z" fill="black"/>
<path d="M316.682 645.344C319.692 647.318 322.63 648.542 325.494 649.01C328.369 649.484 331.078 649.365 333.619 648.656C336.161 647.948 338.505 646.75 340.661 645.052C342.828 643.359 344.666 641.339 346.182 638.99L354.349 646.469C351.901 649.01 349.005 651.13 345.661 652.823C342.328 654.521 338.776 655.672 335.015 656.281C331.25 656.891 327.39 656.891 323.432 656.281C319.484 655.672 315.729 654.281 312.161 652.115C308.672 649.948 305.828 647.359 303.619 644.344C301.411 641.333 299.854 638.156 298.953 634.823C298.062 631.479 297.786 628.068 298.119 624.594C298.453 621.109 299.416 617.859 301.015 614.844C302.416 612.318 304.317 610.068 306.724 608.094C309.125 606.109 311.786 604.505 314.703 603.281C317.619 602.063 320.651 601.26 323.807 600.885C326.958 600.51 329.942 600.604 332.765 601.156V594.385H292.974L285.911 581.969H358.453L365.515 594.385H344.203V604.406C347.672 607.146 349.922 609.854 350.953 612.531C351.994 615.214 352.229 617.776 351.661 620.219C351.104 622.667 349.88 624.922 347.994 626.99C346.119 629.063 344.005 630.755 341.661 632.073C339.963 633.021 337.494 634.13 334.244 635.406C330.994 636.672 327.724 637.63 324.432 638.281C321.14 638.938 318.224 639.031 315.682 638.573C313.14 638.104 311.776 636.594 311.599 634.052C314.984 632.917 317.833 632.021 320.14 631.365C322.442 630.714 324.515 630.031 326.349 629.323C328.182 628.615 329.896 627.792 331.494 626.844C333.088 625.901 334.974 624.589 337.14 622.906C338.458 621.771 339.307 620.589 339.682 619.365C340.057 618.146 339.984 616.99 339.474 615.906C338.958 614.823 338.083 613.938 336.849 613.24C335.625 612.531 334.026 612.13 332.057 612.031C326.791 611.656 322.182 612.651 318.224 615.01C314.276 617.359 311.432 620.318 309.682 623.885C307.942 627.458 307.547 631.219 308.494 635.177C309.437 639.125 312.166 642.51 316.682 645.344Z" fill="black"/>
<path d="M408.398 598.906C410.658 598.906 412.965 599.313 415.314 600.115C417.674 600.906 419.861 602.063 421.877 603.573C423.903 605.073 425.616 606.839 427.023 608.865C428.439 610.88 429.382 613.109 429.856 615.552C430.606 620.068 430.627 624.167 429.919 627.844C429.221 631.51 428.116 634.781 426.606 637.656C425.106 640.521 423.34 643.031 421.314 645.198C419.299 647.365 417.398 649.13 415.606 650.49C413.814 651.854 412.278 652.906 411.002 653.656C409.736 654.406 409.064 654.781 408.981 654.781C404.45 657.615 399.762 658.766 394.919 658.24C390.085 657.724 385.549 656.344 381.314 654.094V685.844L368.606 673.552V644.073H368.46V594.385H359.023L351.96 581.969H435.648L442.689 594.385H381.314V612.74C381.866 612.271 383.044 611.281 384.835 609.781C386.627 608.271 388.794 606.714 391.335 605.115C393.877 603.521 396.648 602.089 399.648 600.823C402.658 599.547 405.575 598.906 408.398 598.906ZM381.314 639.135C384.507 644.583 387.919 647.943 391.544 649.219C395.169 650.484 398.648 650.438 401.981 649.073C405.325 647.714 408.314 645.365 410.939 642.031C413.575 638.688 415.528 635.13 416.794 631.365C418.07 627.604 418.424 623.984 417.856 620.51C417.299 617.026 415.512 614.385 412.502 612.594C411.179 611.844 409.84 611.333 408.481 611.052C407.116 610.76 405.325 610.969 403.106 611.677C400.898 612.385 398.049 613.776 394.564 615.844C391.09 617.917 386.674 620.969 381.314 625.01V639.135Z" fill="black"/>
<path d="M485.607 599.323C487.857 599.99 490.014 600.865 492.086 601.948C494.154 603.031 495.967 604.255 497.524 605.615C499.076 606.979 500.3 608.458 501.191 610.052C502.076 611.651 502.524 613.25 502.524 614.844V656.49L491.253 647.74C489.555 649.438 487.342 650.99 484.607 652.406C481.883 653.813 478.92 654.917 475.711 655.719C472.514 656.51 469.201 656.953 465.774 657.052C462.342 657.146 459.071 656.771 455.961 655.927C452.863 655.083 450.045 653.719 447.503 651.844C444.961 649.958 442.982 647.458 441.566 644.344C439.967 641.052 439.472 637.76 440.086 634.469C440.696 631.177 442.055 628.193 444.17 625.51C446.295 622.833 449.071 620.625 452.503 618.885C455.93 617.135 459.696 616.146 463.795 615.906C467.889 615.672 472.17 616.333 476.628 617.885C481.097 619.443 485.503 622.151 489.836 626.01V614.99C489.836 612.271 488.347 610.177 485.378 608.719C482.42 607.26 478.821 606.906 474.586 607.656C471.571 608.13 469.17 608.552 467.378 608.927C465.597 609.302 463.909 609.755 462.316 610.281C460.717 610.797 458.972 611.427 457.086 612.177C455.211 612.927 452.67 613.917 449.461 615.135L446.357 608.073C449.566 606.755 452.717 605.484 455.816 604.26C458.55 603.234 461.446 602.208 464.503 601.177C467.555 600.135 470.357 599.333 472.899 598.76C473.076 598.667 473.284 598.615 473.524 598.615C473.758 598.615 473.972 598.573 474.17 598.49V594.385H438.607L431.545 581.969H509.441L516.503 594.385H485.607V599.323ZM489.836 634.469C486.17 631.651 482.305 629.563 478.253 628.198C474.211 626.823 470.446 626.188 466.961 626.281C463.488 626.38 460.482 627.208 457.941 628.76C455.399 630.302 453.8 632.583 453.149 635.594C452.383 638.885 452.566 641.479 453.691 643.365C454.826 645.24 456.503 646.563 458.711 647.323C460.92 648.073 463.503 648.359 466.461 648.177C469.43 647.984 472.399 647.464 475.357 646.615C478.326 645.771 481.107 644.734 483.691 643.51C486.274 642.292 488.321 641.021 489.836 639.698V634.469Z" fill="black"/>
<path d="M532.728 656.344L520.04 644.073V581.969C520.04 578.677 519.941 575.526 519.749 572.51C519.551 569.969 519.269 567.438 518.894 564.906C518.519 562.365 518.004 560.339 517.353 558.823C516.978 558.073 516.624 557.464 516.29 556.99C515.957 556.521 515.65 556.094 515.374 555.719C514.999 555.344 514.712 554.969 514.519 554.594L515.519 552.615C516.92 553.188 518.426 553.938 520.04 554.865C521.342 555.714 522.749 556.797 524.249 558.115C525.759 559.438 527.176 561.177 528.499 563.344C529.999 566.068 531.051 568.865 531.665 571.74C532.275 574.615 532.629 578.026 532.728 581.969V656.344Z" fill="black"/>
</g>
<defs>
<clipPath id="clip0_6_2">
<rect width="756" height="756" fill="white"/>
</clipPath>
</defs>
</svg>
